<?xml version="1.0" standalone="no"?>
<!DOCTYPE svg PUBLIC "-//W3C//DTD SVG 20010904//EN"
 "http://www.w3.org/TR/2001/REC-SVG-20010904/DTD/svg10.dtd">
<svg version="1.0" xmlns="http://www.w3.org/2000/svg"
 width="3000.000000pt" height="3000.000000pt" viewBox="0 0 3000.000000 3000.000000"
 preserveAspectRatio="xMidYMid meet">
<metadata>
Created by potrace 1.11, written by Peter Selinger 2001-2013
</metadata>
<g transform="translate(0.000000,3000.000000) scale(0.100000,-0.100000)"
fill="#000000" stroke="none">
<path d="M14495 26234 c-27 -2 -131 -8 -230 -14 -1004 -61 -2060 -276 -3020
-617 -1851 -658 -3490 -1783 -4773 -3273 -1264 -1469 -2129 -3244 -2501 -5132
-94 -476 -152 -916 -193 -1463 -18 -233 -17 -1229 0 -1470 41 -554 135 -1266
171 -1281 28 -12 1628 -16 1991 -5 190 6 378 14 418 18 l72 6 0 366 c0 340 1
368 19 394 77 118 409 174 460 79 7 -14 11 -151 11 -411 l0 -391 29 0 c42 0
372 36 606 66 789 101 1567 287 2180 521 1001 384 1981 1000 2870 1808 212
192 621 603 791 795 597 673 1124 1435 1619 2340 135 248 398 770 391 777 -3
3 -147 34 -320 69 -314 63 -342 70 -364 97 -14 16 -402 1532 -402 1569 0 19
14 39 49 71 96 85 296 125 395 78 32 -16 1226 -265 1310 -274 15 -2 25 16 52
88 56 147 205 577 202 580 -2 1 -37 19 -78 41 -89 46 -245 195 -299 286 -175
299 -117 697 139 949 115 113 241 188 428 253 177 61 359 85 512 67 133 -17
201 -36 305 -86 294 -143 470 -451 434 -764 -40 -350 -288 -624 -679 -749 -52
-16 -131 -36 -175 -43 -44 -7 -83 -15 -87 -19 -9 -7 -38 -110 -133 -463 -36
-137 -65 -250 -63 -252 2 -2 288 -60 636 -130 536 -107 638 -125 664 -116 39
14 132 14 179 1 71 -20 117 -97 98 -164 -14 -51 -1314 -1282 -1397 -1323 -50
-25 -68 -28 -154 -28 -84 0 -100 3 -127 23 -27 20 -190 62 -240 62 -15 0 -21
-24 -40 -172 -96 -759 -96 -1438 0 -2053 92 -583 270 -1131 466 -1435 234
-361 604 -676 1079 -916 327 -166 732 -282 1229 -353 390 -56 536 -66 1030
-66 248 0 476 4 508 8 l57 8 0 551 0 551 45 43 c64 62 174 96 311 98 72 1 105
-3 117 -13 16 -12 17 -65 17 -597 0 -581 0 -584 20 -584 34 0 371 48 600 86
147 25 234 44 275 62 81 35 209 38 270 6 83 -43 108 -128 61 -208 -13 -23
-294 -464 -625 -980 l-601 -939 0 -374 c0 -297 3 -373 13 -367 6 4 604 477
1327 1049 724 573 1334 1055 1357 1072 93 67 220 78 314 27 81 -44 82 -50 90
-369 4 -154 12 -336 19 -405 95 -1068 374 -1970 816 -2642 46 -71 86 -128 89
-128 12 0 204 433 314 708 394 985 644 2027 745 3097 36 380 41 507 41 1065 0
650 -13 883 -81 1425 -336 2705 -1678 5226 -3741 7030 -1599 1399 -3530 2310
-5605 2644 -331 54 -655 91 -1048 122 -136 10 -1155 21 -1265 13z m337 -1784
c47 -14 81 -55 73 -90 -11 -48 -86 -104 -202 -151 -499 -200 -853 -519 -1006
-905 -76 -189 -105 -387 -87 -578 26 -271 121 -525 290 -777 90 -132 172 -231
324 -386 126 -129 138 -145 132 -169 -16 -62 -130 -133 -258 -161 -67 -14 -85
-15 -135 -3 -56 12 -63 18 -194 149 -333 334 -528 660 -616 1031 -37 158 -44
422 -14 578 103 538 495 987 1135 1301 305 149 450 191 558 161z m726 -638
c20 -10 46 -34 56 -54 19 -35 19 -35 -3 -81 -29 -60 -66 -86 -211 -151 -250
-112 -428 -254 -528 -422 -75 -127 -103 -220 -109 -370 -13 -300 101 -548 390
-851 59 -62 107 -120 107 -130 0 -10 -10 -39 -22 -63 -58 -115 -278 -181 -402
-121 -51 25 -203 179 -289 294 -119 158 -205 327 -249 489 -19 72 -22 107 -22
258 0 192 11 253 74 403 119 287 430 569 815 740 197 87 306 104 393 59z
m4142 -267 c46 -24 256 -235 352 -355 213 -265 368 -571 422 -835 126 -610
-119 -1183 -688 -1610 -314 -235 -804 -456 -954 -429 -44 8 -98 38 -106 60
-30 79 35 147 209 218 439 178 767 449 939 776 250 473 172 1035 -216 1554
-45 61 -153 183 -240 272 -103 106 -158 170 -158 183 0 30 69 102 128 134 105
57 237 71 312 32z m-920 -330 c124 -63 361 -353 465 -568 170 -352 144 -735
-71 -1059 -159 -238 -481 -476 -821 -604 -143 -54 -259 -50 -320 11 -80 80
-15 176 172 254 342 144 566 368 635 635 86 337 -43 688 -374 1016 -88 87 -96
98 -96 133 0 67 39 116 130 162 91 47 212 55 280 20z m-10693 -979 c31 -33 33
-40 33 -107 0 -69 1 -71 23 -66 130 30 134 31 174 10 49 -25 76 -74 69 -128
-7 -55 -53 -97 -128 -113 l-57 -13 40 -64 c22 -34 42 -78 45 -96 11 -73 -63
-145 -139 -135 -45 5 -75 30 -119 99 l-31 48 -39 -60 c-67 -101 -149 -119
-215 -46 -47 50 -46 101 6 186 l39 64 -46 13 c-96 26 -137 65 -137 132 0 48
28 88 78 113 37 19 56 18 164 -9 22 -6 23 -4 23 58 0 106 52 163 140 154 35
-3 51 -11 77 -40z m3841 -184 c31 -20 52 -63 52 -105 0 -82 50 -177 92 -177
59 0 108 -59 108 -131 0 -33 -6 -47 -33 -74 -19 -19 -47 -37 -63 -40 -16 -4
-34 -8 -41 -10 -22 -7 -51 -80 -62 -155 -8 -61 -15 -78 -41 -104 -26 -27 -37
-31 -85 -31 -48 0 -59 4 -86 31 -26 26 -32 42 -40 103 -9 72 -31 135 -53 149
-6 3 -31 14 -56 22 -78 26 -113 113 -73 180 17 30 58 55 103 64 37 8 69 70 79
153 11 86 25 110 76 134 43 20 83 17 123 -9z m10291 -800 c42 -23 71 -74 71
-127 1 -48 21 -109 46 -136 9 -10 35 -24 57 -30 131 -35 125 -214 -9 -243 -55
-12 -81 -55 -93 -156 -11 -84 -30 -116 -79 -137 -52 -21 -100 -11 -138 30 -25
27 -32 45 -37 97 -4 36 -17 85 -30 109 -19 38 -29 47 -69 58 -65 18 -98 60
-98 123 0 63 32 104 98 122 60 17 88 64 98 161 7 76 28 111 78 133 42 18 65
17 105 -4z m-2463 -1893 c30 -25 44 -68 44 -135 0 -49 3 -65 13 -61 38 14 133
28 161 23 18 -4 46 -20 62 -37 25 -26 29 -38 29 -84 0 -73 -34 -110 -117 -127
-32 -7 -58 -16 -58 -20 0 -4 17 -34 37 -65 30 -47 38 -68 38 -106 0 -43 -4
-52 -37 -83 -36 -33 -55 -39 -108 -34 -40 3 -57 17 -101 81 l-41 60 -36 -52
c-50 -70 -80 -92 -131 -91 -77 1 -129 63 -118 141 2 21 21 62 40 91 20 30 34
57 31 61 -2 4 -23 10 -47 14 -60 10 -94 30 -113 67 -44 85 12 189 103 188 15
-1 53 -7 84 -14 l57 -14 4 74 c3 65 7 77 33 104 16 17 43 34 60 39 34 9 88 -1
111 -20z m-9427 -245 c45 -38 55 -86 32 -161 l-19 -61 22 -6 c11 -3 38 -6 59
-6 111 0 176 -91 132 -184 -23 -48 -61 -66 -143 -66 l-70 0 20 -78 c18 -72 18
-82 4 -115 -27 -67 -111 -96 -176 -62 -34 17 -54 51 -71 119 -6 25 -15 48 -19
51 -4 3 -31 -14 -59 -36 -88 -70 -181 -59 -217 26 -28 69 -12 111 71 179 l56
45 -55 35 c-86 55 -108 120 -63 187 47 70 112 77 201 23 32 -19 62 -31 66 -27
4 4 15 31 24 60 24 71 62 103 126 103 37 0 55 -6 79 -26z m-4719 -262 c35 -26
60 -80 60 -132 1 -83 45 -150 100 -150 12 0 37 -15 55 -33 42 -42 53 -92 30
-140 -19 -41 -42 -58 -101 -75 -50 -15 -72 -53 -84 -147 -4 -34 -15 -75 -23
-92 -17 -32 -70 -63 -107 -63 -37 0 -90 31 -107 63 -8 17 -19 58 -23 92 -12
97 -34 133 -88 148 -85 23 -129 98 -99 170 16 38 61 77 88 77 54 0 88 53 99
152 9 79 28 114 81 141 39 20 81 16 119 -11z m18137 -889 c45 -21 72 -78 73
-150 0 -60 -2 -59 84 -38 75 18 120 5 154 -45 19 -29 23 -44 19 -84 -6 -65
-42 -99 -121 -116 -31 -6 -56 -15 -56 -18 0 -4 17 -32 37 -62 32 -46 38 -63
38 -107 0 -46 -4 -57 -33 -85 -29 -29 -39 -33 -86 -33 -62 0 -89 19 -132 92
-13 24 -28 43 -32 43 -4 0 -19 -19 -34 -43 -42 -66 -71 -89 -120 -94 -53 -5
-85 11 -116 57 -33 48 -26 100 22 171 20 29 36 57 36 61 0 3 -23 11 -51 17
-67 15 -86 26 -109 64 -38 61 -18 142 42 173 36 19 74 20 138 5 25 -6 48 -11
53 -11 4 0 7 23 7 52 0 127 88 198 187 151z"/>
<path d="M16663 22989 c-121 -22 -256 -190 -304 -377 -23 -92 -25 -240 -3
-332 15 -67 76 -201 99 -220 13 -11 18 1 100 274 22 73 34 96 69 131 72 72
218 112 314 86 49 -14 110 -63 118 -97 4 -14 -28 -146 -81 -339 -48 -174 -85
-318 -82 -322 3 -3 21 -5 40 -5 120 0 280 183 334 382 23 85 23 242 0 330 -26
98 -89 217 -152 287 -127 140 -320 226 -452 202z"/>
<path d="M14874 20919 c3 -8 73 -282 157 -609 83 -327 152 -596 153 -598 9 -9
360 -72 366 -65 28 29 440 1012 440 1048 0 8 -184 49 -537 119 -296 59 -548
110 -561 113 -16 4 -21 1 -18 -8z"/>
<path d="M16541 20498 c-86 -347 -221 -1001 -210 -1013 3 -3 70 -18 149 -34
l144 -29 191 181 c105 100 331 315 503 477 172 162 309 296 305 297 -12 4
-1048 213 -1054 213 -3 0 -15 -42 -28 -92z"/>
<path d="M15708 18967 c-568 -1118 -1199 -2059 -1944 -2897 -169 -191 -618
-640 -819 -820 -909 -814 -1885 -1433 -2910 -1845 -806 -324 -1760 -547 -2865
-670 -124 -14 -231 -25 -237 -25 -10 0 -13 -120 -13 -569 l0 -569 58 -7 c175
-21 375 -81 547 -165 340 -165 587 -435 695 -758 80 -242 62 -531 -48 -781
-214 -484 -764 -829 -1406 -881 -234 -19 -336 19 -336 126 0 108 146 204 310
204 486 0 918 312 1016 735 27 113 24 301 -5 410 -89 330 -370 607 -736 725
-118 37 -246 60 -341 60 -110 0 -169 16 -210 56 l-34 35 0 671 0 671 -96 -6
c-272 -18 -909 -28 -1581 -25 -748 3 -752 3 -748 -17 222 -983 506 -1793 926
-2635 1019 -2041 2613 -3709 4609 -4823 1331 -742 2821 -1208 4345 -1356 410
-40 550 -46 1115 -46 565 0 705 6 1115 46 2292 223 4462 1153 6215 2661 964
829 1792 1829 2415 2913 158 277 152 262 129 289 -10 13 -57 70 -103 127 -185
227 -375 550 -521 884 -289 663 -461 1400 -520 2225 -6 85 -12 156 -14 157 -2
2 -588 -460 -1302 -1025 l-1299 -1029 -5 -920 c-5 -903 -5 -921 -25 -943 -52
-57 -215 -110 -341 -110 -63 0 -87 4 -103 18 l-21 17 -3 771 -2 771 -585 -464
c-341 -271 -608 -476 -640 -491 -44 -22 -70 -27 -130 -27 -104 0 -165 30 -199
98 -21 42 -22 53 -12 86 6 21 362 586 791 1257 l780 1219 0 783 0 783 -47 -6
c-95 -11 -461 -25 -652 -25 -575 0 -1209 72 -1683 191 -934 234 -1695 767
-2066 1449 -57 104 -132 283 -192 456 -286 830 -365 1874 -225 2984 12 102 22
186 21 187 -1 1 -32 -58 -68 -130z m2765 -5153 c80 -27 126 -106 105 -181 -8
-30 -195 -224 -1040 -1074 -566 -571 -1028 -1041 -1026 -1046 1 -4 523 -513
1158 -1131 635 -618 1159 -1132 1164 -1143 30 -63 -122 -157 -294 -181 -138
-20 -97 -51 -679 516 -1555 1514 -1789 1741 -1826 1768 -61 45 -78 79 -73 143
l5 54 641 648 c701 709 1595 1603 1603 1603 3 0 29 9 59 20 67 24 141 25 203
4z m-7575 -1991 l37 -18 3 -362 2 -363 443 0 c439 0 443 0 487 -22 34 -18 46
-29 48 -50 8 -65 -65 -131 -187 -168 -58 -18 -94 -20 -427 -20 l-364 0 0 -340
0 -340 433 0 c445 0 491 -4 528 -41 51 -51 -13 -146 -126 -188 -90 -34 -174
-40 -517 -41 l-318 0 0 -367 0 -367 -49 -47 c-35 -34 -67 -53 -117 -70 -63
-22 -85 -24 -239 -23 -184 0 -295 12 -477 50 -121 25 -319 89 -392 126 -305
155 -366 397 -151 596 73 68 171 132 268 177 152 69 443 149 619 170 l58 7 2
793 3 793 25 27 c38 41 150 92 240 109 45 8 130 -2 168 -21z m4006 -942 c202
-45 357 -124 488 -249 176 -168 268 -383 268 -624 0 -442 -377 -834 -906 -943
-132 -27 -331 -37 -696 -33 -345 3 -354 4 -395 26 -101 53 -24 166 152 223 29
9 167 14 500 18 l460 6 57 28 c254 125 395 461 319 760 -53 206 -198 385 -386
477 -146 72 -120 70 -990 70 -531 0 -793 4 -820 11 -179 49 -52 215 190 249
33 4 420 7 860 6 785 -3 802 -3 899 -25z"/>
<path d="M10375 9863 c-100 -13 -215 -36 -268 -54 -185 -62 -256 -135 -228
-231 38 -125 246 -236 549 -292 l32 -5 0 294 0 295 -27 -1 c-16 -1 -41 -4 -58
-6z"/>
<path d="M21545 13970 c-60 -11 -183 -29 -272 -41 l-163 -22 0 -421 c0 -231 4
-416 8 -411 8 9 560 874 576 903 9 16 -12 15 -149 -8z"/>
<path d="M20385 11133 c-126 -197 -233 -365 -239 -373 -17 -22 10 -2 253 190
l221 175 0 183 c0 100 -2 182 -3 182 -2 0 -107 -161 -232 -357z"/>
</g>
</svg>
